<svg width="72" height="72" viewBox="0 0 72 72" fill="none" xmlns="http://www.w3.org/2000/svg">
<path d="M20.0837 33.3389C20.0025 33.2037 19.9068 33.0484 19.802 32.8783C19.128 31.785 18.0753 30.0772 18.0753 29.1213C18.0753 27.9033 19.6489 26.5105 21.3278 25.0243C21.4483 24.9177 21.5693 24.8105 21.6904 24.7029C23.3975 23.1967 25.205 21.3891 25.205 19.1799C25.205 18.8787 25.0042 17.9749 24.6025 16.6695M20.0837 33.3389L19.2167 33.8372C19.2183 33.84 19.2199 33.8427 19.2214 33.8455M20.0837 33.3389L19.2262 33.8534C19.2246 33.8508 19.223 33.8482 19.2214 33.8455M20.0837 33.3389C25.1046 42.0753 31.0293 48 39.8661 53.0209C40.0634 53.1393 40.3073 53.2732 40.5793 53.4226C40.9996 53.6534 41.4872 53.9212 41.9749 54.2259C42.7782 54.728 43.4812 55.0293 44.1841 55.0293C45.59 55.0293 47.5983 52.8201 49.4059 50.41L9.841 0.100418M19.2214 33.8455C19.1507 33.7278 19.0637 33.5866 18.966 33.4282C18.6792 32.9628 18.3005 32.3485 17.9735 31.7427C17.7497 31.328 17.5332 30.8875 17.3705 30.4628C17.2145 30.0555 17.0753 29.5806 17.0753 29.1213C17.0753 28.0518 17.7847 27.0958 18.4673 26.3499C19.0931 25.6663 19.895 24.9567 20.6696 24.2714C20.7893 24.1654 20.9084 24.0601 21.026 23.9555L21.0288 23.9531C21.8747 23.2067 22.6822 22.439 23.2787 21.6175C23.8713 20.8012 24.205 20.0002 24.205 19.1799C24.205 19.1826 24.205 19.1821 24.2046 19.1782C24.2035 19.1652 24.199 19.1144 24.1815 19.0119C24.161 18.8911 24.1281 18.7305 24.081 18.5303C23.9878 18.1342 23.8453 17.6099 23.6518 16.9801M19.2214 33.8455C24.3281 42.7283 30.3778 48.7781 39.3622 53.8848C39.5758 54.0125 39.8387 54.1568 40.1089 54.3052C40.1805 54.3445 40.2526 54.3841 40.3245 54.4237C40.6845 54.6224 41.067 54.8377 41.4449 55.0739C42.2952 55.6054 43.1952 56.0293 44.1841 56.0293C44.7868 56.0293 45.3564 55.7976 45.8476 55.5074C46.3489 55.2112 46.8485 54.8061 47.331 54.3504C48.2961 53.439 49.2899 52.2314 50.2059 51.01L50.214 50.9992L50.2219 50.9881C51.0582 49.8073 51.9417 48.715 52.7862 47.9284C53.6652 47.1096 54.3151 46.7999 54.7105 46.791C54.709 46.7911 54.7082 46.7913 54.7082 46.7916C54.7076 46.7955 54.8395 46.8183 55.1572 46.9515C55.4962 47.0936 55.9584 47.3231 56.5338 47.6588L56.5548 47.671L56.5763 47.6822C58.1917 48.5222 59.957 49.5621 61.7793 50.6355C62.7641 51.2156 63.7655 51.8055 64.769 52.379C65.6864 52.9227 66.3321 53.3203 66.862 53.6466C67.843 54.2506 68.4268 54.6101 69.6016 55.1992C69.9767 55.4346 70.2913 55.6481 70.5409 55.8578C70.7786 56.0574 70.914 56.2184 70.9855 56.3435C70.9868 56.3592 70.9881 56.377 70.9894 56.3971C70.9996 56.5601 71 56.7764 71 57.0377C71 57.8294 70.8185 59.049 70.5235 60.3274L70.5218 60.3351L70.5201 60.3428C70.241 61.6452 69.7731 62.7743 69.3791 63.6608L69.3743 63.6715L69.3698 63.6823C68.5166 65.73 66.1034 67.5999 63.1727 68.8709C60.1158 70.1522 56.8457 71 54.6276 71C50.4292 71 46.6249 69.4824 42.6474 67.8957C42.2796 67.749 41.9104 67.6017 41.5392 67.455L41.5268 67.4501L41.5143 67.4455C34.2386 64.7909 27.7268 60.3576 22.1837 55.0124C16.6368 49.6636 11.7735 43.2151 7.99923 36.6609C6.59603 34.155 4.81786 30.8918 3.43894 27.4445C2.03312 23.93 1 20.7759 1 17.9749C1 14.8493 1.9514 11.2877 3.5054 8.079C5.12251 4.94345 7.23333 2.40325 10.0553 1.10042M23.6518 16.9801C23.6537 16.9856 23.6556 16.9911 23.6575 16.9966L24.6025 16.6695M23.6518 16.9801C23.6501 16.9746 23.6484 16.9691 23.6467 16.9635L24.6025 16.6695M23.6518 16.9801C23.2229 15.7421 22.7251 14.4108 22.2081 13.0283L22.147 12.8649C21.6084 11.4244 21.0524 9.93342 20.546 8.46507M24.6025 16.6695C24.1682 15.4148 23.6644 14.0675 23.1467 12.683C22.587 11.1865 22.0112 9.64664 21.4895 8.13389M21.4895 8.13389L20.5478 8.47023C20.5472 8.46851 20.5466 8.46679 20.546 8.46507M21.4895 8.13389C21.3461 7.73222 21.2108 7.36333 21.0885 7.02958C20.7825 6.1952 20.5571 5.58039 20.4854 5.22176M21.4895 8.13389L20.5442 8.45988C20.5448 8.46161 20.5454 8.46334 20.546 8.46507M20.546 8.46507C20.3985 8.05238 20.2725 7.70886 20.1559 7.39109C20.0653 7.14423 19.9804 6.91291 19.8956 6.67678C19.7543 6.28312 19.6252 5.90887 19.5468 5.60093M20.4854 5.22176L19.6533 5.77646C19.6152 5.71925 19.5797 5.66063 19.5468 5.60093M20.4854 5.22176C20.2845 4.9205 20.1841 4.51883 20.0837 4.01674C20.0259 3.72775 19.9348 3.47203 19.8488 3.23042C19.7853 3.05226 19.7246 2.88178 19.682 2.7113M20.4854 5.22176L19.5048 5.41787C19.5163 5.47574 19.5305 5.5369 19.5468 5.60093M19.5468 5.60093C19.2982 5.15096 19.1885 4.63969 19.1031 4.21285C19.0675 4.03467 19.0121 3.86393 18.9399 3.65918C18.9305 3.63275 18.9205 3.60473 18.91 3.57536C18.8513 3.411 18.7775 3.20432 18.7227 2.99605M19.682 2.7113L18.7333 3.02753C18.7298 3.01699 18.7263 3.0065 18.7227 2.99605M19.682 2.7113C19.3808 1.80753 18.8787 1.1046 18.3766 0.702929M19.682 2.7113L18.7119 2.95383C18.7154 2.9679 18.719 2.98198 18.7227 2.99605M18.7227 2.99605C18.4998 2.34391 18.1622 1.86079 17.8615 1.57905M18.3766 0.702929L18.0052 1.63141C17.9647 1.6152 17.9165 1.59764 17.8615 1.57905M18.3766 0.702929C17.8745 0.502092 16.6695 0.200837 15.4644 0.100418M18.3766 0.702929L17.7519 1.4838C17.7877 1.51243 17.8243 1.5442 17.8615 1.57905M17.8615 1.57905C17.3913 1.42028 16.419 1.18749 15.4214 1.10038M15.4644 0.100418V1.10042C15.4501 1.10042 15.4358 1.1004 15.4214 1.10038M15.4644 0.100418C14.7586 0.100418 13.9837 0.0659603 13.3419 0.0374142C12.888 0.0172291 12.5006 0 12.251 0C11.9498 0 11.5481 0 11.1464 0.100418H9.841M15.4644 0.100418L15.3814 1.09696C15.3947 1.09808 15.4081 1.09921 15.4214 1.10038M15.4214 1.10038C14.8076 1.09923 14.1533 1.07383 13.5884 1.04927C13.4842 1.04474 13.3841 1.04029 13.2882 1.03604C12.8339 1.01588 12.4762 1 12.251 1C11.9394 1 11.655 1.00405 11.389 1.07056L11.2695 1.10042H11.1464H10.0553M10.0553 1.10042C10.1171 1.07187 10.1793 1.04392 10.2418 1.01658L9.841 0.100418M10.0553 1.10042H9.841V0.100418" fill="#EBEBF7" stroke="black" stroke-width="2"/>
</svg>
